<svg version="1.1" id="Capa_1" xmlns="http://www.w3.org/2000/svg" xmlns:xlink="http://www.w3.org/1999/xlink" x="0px" y="0px" viewBox="0 0 510 510" style="enable-background:new 0 0 510 510;" xml:space="preserve">
<g>
	<rect x="11" y="10" style="fill:#93B2F4;" width="490" height="490"/>
	<path style="fill:#FD7DA0;" d="M320.745,187.148c45.833-15.355,140.191-32.55,177.148,67.852c0,0-30.253,117.656-177.148,67.852&#10;&#9;&#9;C336.1,368.685,353.295,463.043,252.892,500c0,0-112.664-34.543-67.852-177.148C139.207,338.207,44.849,355.403,7.892,255&#10;&#9;&#9;c0,0,48.534-118.871,177.148-67.852C169.685,141.315,152.49,46.957,252.892,10C252.892,10,377.5,42.117,320.745,187.148z"/>
	<path style="fill:#6864F7;" d="M426.822,425.822C471.059,330.051,393.28,276.25,350.618,255&#10;&#9;&#9;c42.662-21.25,120.441-75.051,76.204-170.822C331.051,39.941,277.25,117.72,256,160.382&#10;&#9;&#9;C234.75,117.72,180.949,39.941,85.178,84.178C40.941,179.949,118.72,233.75,161.382,255&#10;&#9;&#9;c-42.662,21.25-120.441,75.051-76.205,170.822C180.949,470.059,234.75,392.28,256,349.618&#10;&#9;&#9;C277.25,392.28,331.051,470.059,426.822,425.822z"/>
	<path style="fill:#FDCB50;" d="M320.74,322.85c8.7,25.98,18,67.53,6.14,105.39c-35.62-17.85-58.64-54.06-70.88-78.62&#10;&#9;&#9;c-12.61,25.31-36.67,62.98-74.15,80.2c-9.32-26-11.31-60.83,3.19-106.97c-25.65,8.6-66.5,17.77-103.98,6.57&#10;&#9;&#9;c17.16-37.64,54.95-61.78,80.32-74.42c-25.02-12.46-62.11-36.12-79.59-72.87c26.27-10.11,60.29-12.02,103.25,5.02&#10;&#9;&#9;c-8.89-26.55-18.4-69.38-5.32-107.91c38.7,16.74,63.44,55.36,76.28,81.14c12.55-25.2,36.47-62.67,73.69-79.98&#10;&#9;&#9;c8.81,25.89,9.11,60.6-8.95,106.75c26.89-9.01,70.47-18.65,109.37-4.81c-17.52,36.63-54.52,60.22-79.49,72.66&#10;&#9;&#9;c25.05,12.48,62.21,36.18,79.66,73.02C404.18,337.53,368.67,339.1,320.74,322.85z"/>
	<path style="fill:#FD8F01;" d="M320.74,322.85c8.7,25.98,18,67.53,6.14,105.39c-35.62-17.85-58.64-54.06-70.88-78.62&#10;&#9;&#9;c-12.61,25.31-36.67,62.98-74.15,80.2c-9.32-26-11.31-60.83,3.19-106.97c-25.65,8.6-66.5,17.77-103.98,6.57&#10;&#9;&#9;c17.16-37.64,54.95-61.78,80.32-74.42c-25.02-12.46-62.11-36.12-79.59-72.87c26.27-10.11,60.29-12.02,103.25,5.02&#10;&#9;&#9;c0,0,11.053,52.291,47.895,87.904C270.005,310.888,320.74,322.85,320.74,322.85z"/>
</g>
<g>
	
		<rect x="10" y="10" style="fill:none;stroke:#052A75;stroke-width:20;stroke-linecap:round;stroke-linejoin:round;stroke-miterlimit:10;" width="490" height="490"/>
	<path style="fill:none;stroke:#052A75;stroke-width:20;stroke-linecap:round;stroke-linejoin:round;stroke-miterlimit:10;" d="&#10;&#9;&#9;M500,255c-36.956-100.403-131.315-83.207-177.148-67.852C338.207,141.315,355.402,46.957,255,10"/>
	<path style="fill:none;stroke:#052A75;stroke-width:20;stroke-linecap:round;stroke-linejoin:round;stroke-miterlimit:10;" d="&#10;&#9;&#9;M255,500c100.402-36.957,83.207-131.315,67.852-177.148C368.685,338.207,463.044,355.403,500,255"/>
	<path style="fill:none;stroke:#052A75;stroke-width:20;stroke-linecap:round;stroke-linejoin:round;stroke-miterlimit:10;" d="&#10;&#9;&#9;M10,255c36.957,100.403,131.315,83.207,177.148,67.852C171.793,368.685,154.597,463.043,255,500"/>
	<path style="fill:none;stroke:#052A75;stroke-width:20;stroke-linecap:round;stroke-linejoin:round;stroke-miterlimit:10;" d="&#10;&#9;&#9;M255,10c-100.403,36.957-83.207,131.315-67.852,177.148C141.315,171.793,46.957,154.597,10,255"/>
	<path style="fill:none;stroke:#FFFFFF;stroke-width:20;stroke-linecap:round;stroke-linejoin:round;stroke-miterlimit:10;" d="&#10;&#9;&#9;M425.822,425.822C470.059,330.051,392.28,276.25,349.618,255c42.662-21.25,120.441-75.051,76.204-170.823&#10;&#9;&#9;C330.051,39.941,276.25,117.72,255,160.382C233.75,117.72,179.949,39.941,84.178,84.178C39.941,179.949,117.72,233.75,160.382,255&#10;&#9;&#9;c-42.662,21.25-120.441,75.051-76.205,170.822C179.949,470.059,233.75,392.28,255,349.618&#10;&#9;&#9;C276.25,392.28,330.051,470.059,425.822,425.822z"/>
</g>
<g>
</g>
<g>
</g>
<g>
</g>
<g>
</g>
<g>
</g>
<g>
</g>
<g>
</g>
<g>
</g>
<g>
</g>
<g>
</g>
<g>
</g>
<g>
</g>
<g>
</g>
<g>
</g>
<g>
</g>
</svg>