<svg version="1.1" id="Capa_1" xmlns="http://www.w3.org/2000/svg" xmlns:xlink="http://www.w3.org/1999/xlink" x="0px" y="0px" viewBox="0 0 510 510" style="enable-background:new 0 0 510 510;" xml:space="preserve">
<g>
	<g>
		<rect x="10" y="10" style="fill:#FFFFFF;" width="490" height="490"/>
		<path style="fill:#FDE0BE;" d="M500,369.06V500H10V10h127c-6.14,22.09-9.64,45.21-10.14,69.03c-0.05,2.01-0.07,4.03-0.07,6.06&#10;&#9;&#9;&#9;c0,49.1,12.69,95.36,35.11,135.95c29.03,52.54,74.35,95.57,129.53,122.92c41.9,20.78,89.5,32.52,139.95,32.52&#10;&#9;&#9;&#9;c1.38,0,2.77-0.01,4.15-0.02C457.67,376.17,479.24,373.63,500,369.06z"/>
	</g>
	<g>
		<path style="fill:#FDCB50;" d="M430.78,10v13.9c0,29.48,23.89,53.37,53.37,53.37h15.25l1.2-0.41V10H430.78z"/>
		<circle style="fill:#FDCB50;" cx="255" cy="254.946" r="30.498"/>
		<path style="fill:#FDCB50;" d="M294.122,9.946v15.249c0,21.054-17.068,38.122-38.122,38.122s-38.122-17.068-38.122-38.122V9.946&#10;&#9;&#9;&#9;H294.122z"/>
		<path style="fill:#FDCB50;" d="M500,293.069h-15.249c-21.054,0-38.122-17.068-38.122-38.122s17.068-38.122,38.122-38.122H500&#10;&#9;&#9;&#9;V293.069z"/>
	</g>
	<g>
		<path style="fill:#FD8F01;" d="M79.82,10v13.9c0,29.48-23.89,53.37-53.37,53.37H11.2L10,76.86V10H79.82z"/>
		<path style="fill:#FD8F01;" d="M79.82,499.325v-13.9c0-29.48-23.89-53.37-53.37-53.37H11.2l-1.2,0.41v66.86H79.82z"/>
		<path style="fill:#FD8F01;" d="M430.78,499.325v-13.9c0-29.48,23.89-53.37,53.37-53.37h15.25l1.2,0.41v66.86H430.78z"/>
		<path style="fill:#FD8F01;" d="M10,293.069h15.249c21.054,0,38.122-17.068,38.122-38.122s-17.068-38.122-38.122-38.122H10V293.069&#10;&#9;&#9;&#9;z"/>
		<path style="fill:#FD8F01;" d="M294.122,499.946v-15.249c0-21.054-17.068-38.122-38.122-38.122s-38.122,17.068-38.122,38.122&#10;&#9;&#9;&#9;v15.249H294.122z"/>
	</g>
	<g>
		<path style="fill:#93B2F4;" d="M193.496,116.689h-14.741v-14.741c0-17.124-13.882-31.006-31.006-31.006&#10;&#9;&#9;&#9;s-31.006,13.882-31.006,31.006v14.741h-14.741c-17.124,0-31.006,13.882-31.006,31.006l0,0c0,17.124,13.882,31.006,31.006,31.006&#10;&#9;&#9;&#9;h14.741v14.741c0,17.124,13.882,31.006,31.006,31.006s31.006-13.882,31.006-31.006v-14.741h14.741&#10;&#9;&#9;&#9;c17.124,0,31.006-13.882,31.006-31.006l0,0C224.502,130.571,210.62,116.689,193.496,116.689z"/>
		<path style="fill:#93B2F4;" d="M407.998,116.689h-14.741v-14.741c0-17.124-13.882-31.006-31.006-31.006&#10;&#9;&#9;&#9;s-31.006,13.882-31.006,31.006v14.741h-14.741c-17.124,0-31.006,13.882-31.006,31.006l0,0c0,17.124,13.882,31.006,31.006,31.006&#10;&#9;&#9;&#9;h14.741v14.741c0,17.124,13.882,31.006,31.006,31.006s31.006-13.882,31.006-31.006v-14.741h14.741&#10;&#9;&#9;&#9;c17.124,0,31.006-13.882,31.006-31.006l0,0C439.004,130.571,425.122,116.689,407.998,116.689z"/>
		<path style="fill:#6864F7;" d="M193.496,331.191h-14.741v-14.741c0-17.124-13.882-31.006-31.006-31.006&#10;&#9;&#9;&#9;s-31.006,13.882-31.006,31.006v14.741h-14.741c-17.124,0-31.006,13.882-31.006,31.006l0,0c0,17.124,13.882,31.006,31.006,31.006&#10;&#9;&#9;&#9;h14.741v14.741c0,17.124,13.882,31.006,31.006,31.006s31.006-13.882,31.006-31.006v-14.741h14.741&#10;&#9;&#9;&#9;c17.124,0,31.006-13.882,31.006-31.006l0,0C224.502,345.073,210.62,331.191,193.496,331.191z"/>
		<path style="fill:#93B2F4;" d="M407.998,331.191h-14.741v-14.741c0-17.124-13.882-31.006-31.006-31.006&#10;&#9;&#9;&#9;s-31.006,13.882-31.006,31.006v14.741h-14.741c-17.124,0-31.006,13.882-31.006,31.006l0,0c0,17.124,13.882,31.006,31.006,31.006&#10;&#9;&#9;&#9;h14.741v14.741c0,17.124,13.882,31.006,31.006,31.006s31.006-13.882,31.006-31.006v-14.741h14.741&#10;&#9;&#9;&#9;c17.124,0,31.006-13.882,31.006-31.006l0,0C439.004,345.073,425.122,331.191,407.998,331.191z"/>
		<path style="fill:#6864F7;" d="M161.9,221.04c-4.24,2.18-9.05,3.41-14.15,3.41c-17.13,0-31.01-13.88-31.01-31.01V178.7H102&#10;&#9;&#9;&#9;c-8.56,0-16.31-3.47-21.92-9.08C74.47,164.01,71,156.26,71,147.7c0-17.13,13.88-31.01,31-31.01h14.74v-14.74&#10;&#9;&#9;&#9;c0-9.08,3.9-17.25,10.12-22.92c-0.05,2.01-0.07,4.03-0.07,6.06C126.79,134.19,139.48,180.45,161.9,221.04z"/>
		<path style="fill:#6864F7;" d="M435.53,376.46c-5.16,9.95-15.55,16.74-27.53,16.74h-14.74v14.74c0,17.13-13.88,31.01-31.01,31.01&#10;&#9;&#9;&#9;c-17.12,0-31.01-13.88-31.01-31.01V393.2H316.5c-8.56,0-16.31-3.47-21.92-9.08c-5.61-5.61-9.08-13.36-9.08-21.92&#10;&#9;&#9;&#9;c0-6.81,2.2-13.12,5.93-18.24c41.9,20.78,89.5,32.52,139.95,32.52C432.76,376.48,434.15,376.47,435.53,376.46z"/>
	</g>
</g>
<g>
	
		<rect x="10" y="10" style="fill:none;stroke:#052A75;stroke-width:20;stroke-linecap:round;stroke-linejoin:round;stroke-miterlimit:10;" width="490" height="490"/>
	<path style="fill:none;stroke:#052A75;stroke-width:20;stroke-linecap:round;stroke-linejoin:round;stroke-miterlimit:10;" d="&#10;&#9;&#9;M193.496,116.743h-14.741v-14.741c0-17.124-13.882-31.006-31.006-31.006s-31.006,13.882-31.006,31.006v14.741h-14.741&#10;&#9;&#9;c-17.124,0-31.006,13.882-31.006,31.006l0,0c0,17.124,13.882,31.006,31.006,31.006h14.741v14.741&#10;&#9;&#9;c0,17.124,13.882,31.006,31.006,31.006s31.006-13.882,31.006-31.006v-14.741h14.741c17.124,0,31.006-13.882,31.006-31.006l0,0&#10;&#9;&#9;C224.502,130.625,210.62,116.743,193.496,116.743z"/>
	<path style="fill:none;stroke:#052A75;stroke-width:20;stroke-linecap:round;stroke-linejoin:round;stroke-miterlimit:10;" d="&#10;&#9;&#9;M407.998,116.743h-14.741v-14.741c0-17.124-13.882-31.006-31.006-31.006s-31.006,13.882-31.006,31.006v14.741h-14.741&#10;&#9;&#9;c-17.124,0-31.006,13.882-31.006,31.006l0,0c0,17.124,13.882,31.006,31.006,31.006h14.741v14.741&#10;&#9;&#9;c0,17.124,13.882,31.006,31.006,31.006s31.006-13.882,31.006-31.006v-14.741h14.741c17.124,0,31.006-13.882,31.006-31.006l0,0&#10;&#9;&#9;C439.004,130.625,425.122,116.743,407.998,116.743z"/>
	<path style="fill:none;stroke:#052A75;stroke-width:20;stroke-linecap:round;stroke-linejoin:round;stroke-miterlimit:10;" d="&#10;&#9;&#9;M193.496,331.245h-14.741v-14.741c0-17.124-13.882-31.006-31.006-31.006s-31.006,13.882-31.006,31.006v14.741h-14.741&#10;&#9;&#9;c-17.124,0-31.006,13.882-31.006,31.006l0,0c0,17.124,13.882,31.006,31.006,31.006h14.741v14.741&#10;&#9;&#9;c0,17.124,13.882,31.006,31.006,31.006s31.006-13.882,31.006-31.006v-14.741h14.741c17.124,0,31.006-13.882,31.006-31.006l0,0&#10;&#9;&#9;C224.502,345.127,210.62,331.245,193.496,331.245z"/>
	<path style="fill:none;stroke:#052A75;stroke-width:20;stroke-linecap:round;stroke-linejoin:round;stroke-miterlimit:10;" d="&#10;&#9;&#9;M407.998,331.245h-14.741v-14.741c0-17.124-13.882-31.006-31.006-31.006s-31.006,13.882-31.006,31.006v14.741h-14.741&#10;&#9;&#9;c-17.124,0-31.006,13.882-31.006,31.006l0,0c0,17.124,13.882,31.006,31.006,31.006h14.741v14.741&#10;&#9;&#9;c0,17.124,13.882,31.006,31.006,31.006s31.006-13.882,31.006-31.006v-14.741h14.741c17.124,0,31.006-13.882,31.006-31.006l0,0&#10;&#9;&#9;C439.004,345.127,425.122,331.245,407.998,331.245z"/>
</g>
<g>
</g>
<g>
</g>
<g>
</g>
<g>
</g>
<g>
</g>
<g>
</g>
<g>
</g>
<g>
</g>
<g>
</g>
<g>
</g>
<g>
</g>
<g>
</g>
<g>
</g>
<g>
</g>
<g>
</g>
</svg>